<?xml version="1.0" standalone="no"?>
<!DOCTYPE svg PUBLIC "-//W3C//DTD SVG 20010904//EN"
 "http://www.w3.org/TR/2001/REC-SVG-20010904/DTD/svg10.dtd">
<svg version="1.0" xmlns="http://www.w3.org/2000/svg"
 width="1080.000000pt" height="1080.000000pt" viewBox="0 0 1080.000000 1080.000000"
 preserveAspectRatio="xMidYMid meet">

<g transform="translate(0.000000,1080.000000) scale(0.100000,-0.100000)"
fill="#000000" stroke="none">
<path d="M990 6116 c0 -40 2 -44 29 -49 16 -3 45 -3 65 0 35 5 36 7 36 49 l0
44 -65 0 -65 0 0 -44z"/>
<path d="M1217 6153 c-4 -3 -7 -24 -7 -45 l0 -38 325 0 325 0 0 45 0 45 -318
0 c-175 0 -322 -3 -325 -7z"/>
<path d="M1960 6115 c0 -48 2 -49 65 -48 68 1 66 0 63 46 l-3 42 -62 3 -63 3
0 -46z"/>
<path d="M2190 6117 c0 -41 2 -45 29 -50 16 -3 45 -3 65 0 36 6 37 7 34 47
l-3 41 -62 3 -63 3 0 -44z"/>
<path d="M2414 6146 c-3 -8 -4 -27 -2 -43 l3 -28 323 -3 322 -2 0 45 0 45
-320 0 c-267 0 -322 -2 -326 -14z"/>
<path d="M3160 6117 c0 -41 2 -45 29 -50 16 -3 45 -3 65 0 36 6 37 7 34 47
l-3 41 -62 3 -63 3 0 -44z"/>
<path d="M7517 6153 c-4 -3 -7 -24 -7 -45 l0 -38 65 0 65 0 0 45 0 45 -58 0
c-32 0 -62 -3 -65 -7z"/>
<path d="M7740 6115 l0 -45 320 0 320 0 0 45 0 45 -320 0 -320 0 0 -45z"/>
<path d="M8480 6115 l0 -45 66 0 65 0 -3 43 -3 42 -62 3 -63 3 0 -46z"/>
<path d="M8710 6115 l0 -45 66 0 65 0 -3 43 -3 42 -62 3 -63 3 0 -46z"/>
<path d="M8937 6153 c-4 -3 -7 -24 -7 -45 l0 -38 326 0 325 0 -3 43 -3 42
-316 3 c-173 1 -318 -1 -322 -5z"/>
<path d="M9670 6115 l0 -45 65 0 65 0 0 45 0 45 -65 0 -65 0 0 -45z"/>
</g>
</svg>
