<svg xmlns="http://www.w3.org/2000/svg" width="512" height="512" viewBox="0 0 512 512" version="1.1">
	<path d="M 241.763 106.969 C 231.240 108.883, 220.759 113.334, 211 120.034 C 206.011 123.459, 204.688 123.873, 196.750 124.494 C 186.199 125.321, 185.851 126.102, 192.542 133.941 C 195.040 136.867, 197.740 140.530, 198.542 142.081 C 200.265 145.413, 200.445 150.155, 198.907 151.693 C 198.117 152.483, 198.136 153.385, 198.974 154.951 C 200.275 157.382, 200.513 292.030, 199.218 293.005 C 198.823 293.303, 183.537 293.386, 165.250 293.190 L 132 292.834 132 225.926 C 132 160.100, 132.032 158.997, 134 157.768 C 136.370 156.288, 136.593 154.442, 134.500 153.638 C 133.511 153.259, 133 151.694, 133 149.048 L 133 145.033 159.750 144.766 L 186.500 144.500 186.185 140.574 C 186.011 138.415, 185.212 135.378, 184.409 133.824 L 182.949 131 162.929 131 C 142.958 131, 142.903 130.994, 140.432 128.523 C 136.395 124.485, 134.418 123.853, 128.076 124.571 C 122.627 125.187, 121.548 124.939, 113.348 121.187 C 89.741 110.383, 68.620 110.747, 44 122.381 C 39.387 124.562, 37.084 124.982, 29.719 124.990 C 17.397 125.004, 17.324 125.999, 28.853 136.685 C 36.203 143.497, 38 145.715, 38 147.975 C 38 149.665, 37.342 151.039, 36.350 151.419 C 34.884 151.982, 34.940 152.308, 36.858 154.349 L 39.016 156.646 38.758 216.073 L 38.500 275.500 28.750 275.786 C 20.912 276.016, 19 276.364, 19 277.561 C 19 278.380, 20.101 279.468, 21.446 279.980 C 24.512 281.145, 25.758 286.710, 24.232 292.427 C 23.564 294.926, 23.508 297.080, 24.081 298.151 C 24.591 299.105, 25 316.047, 25 336.254 L 25 372.639 22.467 374.842 C 19.994 376.992, 18.648 379.568, 17.400 384.544 L 16.783 387 256.892 387 C 435.210 387, 497 386.708, 497 385.866 C 497 382.399, 494.265 376.516, 491.808 374.700 L 489 372.624 489 335.512 C 489 310.006, 489.342 298.058, 490.093 297.307 C 490.883 296.517, 490.883 295.650, 490.093 294.173 C 489.492 293.050, 489 289.432, 489 286.133 C 489 281.013, 489.293 280.042, 491 279.500 C 492.100 279.151, 493 278.277, 493 277.558 C 493 275.869, 488.506 275, 479.781 275 L 472.813 275 473.156 216.080 L 473.500 157.160 475.717 154.800 C 477.904 152.473, 477.907 152.423, 475.967 151.212 C 472.196 148.857, 473.635 146.032, 483.551 136.324 C 488.803 131.181, 492.827 126.529, 492.492 125.986 C 492.156 125.444, 487.844 125, 482.908 125 C 475.295 125, 473.178 124.617, 468.954 122.477 C 460.029 117.954, 446.739 114.068, 437.859 113.386 C 427.230 112.569, 415.882 114.698, 404 119.737 C 396.888 122.753, 393.916 123.437, 385.802 123.921 C 376.574 124.472, 375.941 124.657, 372.777 127.728 L 369.450 130.956 349.475 131.228 L 329.500 131.500 327.840 135 C 326.926 136.925, 325.878 139.963, 325.510 141.750 L 324.841 145 352.421 145 L 380 145 380 148 C 380 149.741, 379.093 151.907, 377.839 153.161 L 375.679 155.321 377.839 157.071 L 380 158.821 380 225.910 C 380 262.810, 379.663 293.014, 379.250 293.031 C 378.837 293.048, 363.875 293.118, 346 293.187 L 313.500 293.311 313.243 225.017 C 313.057 175.592, 313.297 156.348, 314.110 155.367 C 314.956 154.348, 314.816 153.132, 313.544 150.452 C 311.923 147.035, 311.939 146.730, 313.948 142.876 C 315.099 140.667, 317.832 136.488, 320.020 133.589 C 324.043 128.261, 325.038 125.090, 322.750 124.891 C 322.063 124.832, 317.900 124.699, 313.500 124.596 C 305.936 124.420, 305.237 124.208, 300.676 120.707 C 294.676 116.101, 283.408 110.623, 275.500 108.467 C 268.587 106.583, 248.734 105.701, 241.763 106.969 M 229.250 122.706 C 228.012 122.944, 227 123.783, 227 124.570 C 227 125.776, 231.383 126, 255 126 C 277.752 126, 283 125.749, 283 124.658 C 283 123.604, 278.789 123.176, 263.339 122.658 C 242.723 121.968, 233.010 121.981, 229.250 122.706 M 61.582 129.868 C 59.978 130.216, 58.478 131.063, 58.249 131.750 C 57.924 132.727, 63.012 133, 81.500 133 C 99.986 133, 105.076 132.726, 104.755 131.750 C 104.522 131.044, 101.767 130.221, 98.421 129.859 C 90.829 129.036, 65.395 129.043, 61.582 129.868 M 414.250 129.737 C 410.503 129.999, 409 130.519, 409 131.552 C 409 132.769, 412.273 133, 429.500 133 C 441.018 133, 450 132.605, 450 132.098 C 450 129.393, 434.139 128.346, 414.250 129.737 M 221.250 145.728 C 213.070 146.001, 211 146.366, 211 147.535 C 211 148.800, 217.198 149, 256.441 149 C 299.967 149, 305.021 148.691, 302.518 146.183 C 301.811 145.476, 239.316 145.125, 221.250 145.728 M 48 147.488 C 48 148.810, 52.653 149, 85.083 149 C 114.305 149, 122.078 148.735, 121.750 147.750 C 121.429 146.787, 112.923 146.440, 84.667 146.238 C 52.492 146.007, 48 146.161, 48 147.488 M 391 147.500 C 391 148.469, 391.973 149.001, 393.750 149.002 C 395.262 149.003, 411.575 149.065, 430 149.140 C 460.304 149.264, 463.531 149.120, 463.823 147.638 C 464.118 146.145, 460.920 146, 427.573 146 C 395.730 146, 391 146.194, 391 147.500 M 50.200 157.200 C 49.294 158.106, 49 172.689, 49 216.700 L 49 275 52.967 275 L 56.934 275 57.217 263.750 L 57.500 252.500 86.250 252.235 L 115 251.969 115 271.485 L 115 291 119 291 L 123 291 123 225.934 C 123 182.995, 122.648 160.211, 121.965 158.934 C 121.299 157.690, 119.873 157, 117.965 157 L 115 157 115 175 L 115 193 109 193 C 103.667 193, 103 193.222, 103 195 C 103 196.778, 103.667 197, 109 197 L 115 197 115 200.500 L 115 204 86 204 L 57 204 57 180.607 C 57 160.198, 56.798 157.137, 55.418 156.607 C 53.044 155.696, 51.532 155.868, 50.200 157.200 M 211.243 157.157 C 210.277 158.123, 210 173.160, 210 224.537 L 210 290.674 255.603 291.332 C 280.684 291.695, 301.609 291.741, 302.103 291.436 C 302.618 291.118, 303 262.632, 303 224.563 C 303 152.893, 303.191 155.410, 297.805 156.173 C 295.514 156.498, 295.498 156.602, 295.230 173.500 L 294.959 190.500 284.893 190.182 C 275.607 189.888, 274.855 190.004, 275.186 191.682 C 275.503 193.291, 276.665 193.500, 285.272 193.496 L 295 193.491 295 198.746 L 295 204 256.518 204 L 218.036 204 217.768 180.250 L 217.500 156.500 214.993 156.207 C 213.614 156.046, 211.927 156.473, 211.243 157.157 M 456 174.500 L 456 193 451.500 193 C 447.667 193, 447 193.296, 447 195 C 447 196.667, 447.667 197, 451 197 C 454.905 197, 455 197.083, 455 200.500 L 455 204 426.500 204 L 398 204 398 180.437 L 398 156.873 394.750 157.187 L 391.500 157.500 390.739 223 C 390.321 259.025, 390.194 289.063, 390.458 289.750 C 390.779 290.588, 393.280 291, 398.038 291 C 404.776 291, 405.123 290.888, 404.820 288.809 C 404.599 287.294, 403.497 286.360, 401.250 285.781 L 398 284.943 398 268.471 L 398 252 426.639 252 L 455.279 252 454.771 263.500 L 454.264 275 458.632 275 L 463 275 463 216.107 C 463 152.352, 463.308 156, 457.918 156 C 456.096 156, 456 156.930, 456 174.500 M 141.685 160.649 C 141.308 161.025, 141 170.669, 141 182.079 L 141 202.825 162.250 203.163 C 173.938 203.348, 184.682 203.345, 186.126 203.155 L 188.753 202.809 189.188 185.217 C 189.428 175.541, 189.364 166.022, 189.046 164.062 L 188.467 160.500 165.418 160.232 C 152.741 160.085, 142.061 160.272, 141.685 160.649 M 323.200 161.200 C 322.345 162.055, 322 168.244, 322 182.700 L 322 203 346.893 203 C 368.670 203, 371.862 202.802, 372.393 201.418 C 372.727 200.548, 373 191.312, 373 180.893 L 373 161.950 370.435 160.975 C 366.567 159.505, 324.696 159.704, 323.200 161.200 M 255 180.500 C 255 197.333, 255.076 198, 257 198 C 258.924 198, 259 197.333, 259 180.500 C 259 163.667, 258.924 163, 257 163 C 255.076 163, 255 163.667, 255 180.500 M 78 166 C 78 166.550, 78.900 167, 80 167 C 81.100 167, 82 166.550, 82 166 C 82 165.450, 81.100 165, 80 165 C 78.900 165, 78 165.450, 78 166 M 89.440 167.296 C 89.166 168.009, 89.068 175.096, 89.221 183.046 L 89.500 197.500 93.250 197.810 L 97 198.121 97 182.060 L 97 166 93.469 166 C 91.499 166, 89.717 166.573, 89.440 167.296 M 265 182.066 L 265 198.133 267.750 197.816 L 270.500 197.500 270.775 181.750 L 271.051 166 268.025 166 L 265 166 265 182.066 M 62.714 168.619 C 62.321 169.012, 62 175.810, 62 183.727 L 62 198.121 65.750 197.810 L 69.500 197.500 69.500 183 L 69.500 168.500 66.464 168.203 C 64.794 168.039, 63.107 168.227, 62.714 168.619 M 417 183 L 417 198.115 421.250 197.807 L 425.500 197.500 425.500 183 L 425.500 168.500 421.250 168.193 L 417 167.885 417 183 M 432.667 168.667 C 432.300 169.033, 432 175.783, 432 183.667 L 432 198 435.383 198 C 439.720 198, 439.969 197.068, 439.986 180.750 L 440 168 436.667 168 C 434.833 168, 433.033 168.300, 432.667 168.667 M 403 183.440 L 403 198 406.481 198 C 410.918 198, 411.165 197.054, 410.790 181.500 L 410.500 169.500 406.750 169.190 L 403 168.879 403 183.440 M 77 184.500 L 77 198 79.500 198 C 81.721 198, 82.001 197.582, 82.005 194.250 C 82.008 192.188, 82.301 186.113, 82.656 180.750 L 83.302 171 80.151 171 L 77 171 77 184.500 M 225.648 177.250 C 225.301 180.137, 225.013 185.762, 225.009 189.750 L 225 197 237 197 L 249 197 249 184.500 L 249 172 237.639 172 L 226.279 172 225.648 177.250 M 150 186.454 C 150 188.679, 153.133 189.110, 167 188.789 C 177.316 188.550, 179.500 188.238, 179.500 187 C 179.500 185.747, 177.071 185.454, 164.750 185.223 C 152.150 184.987, 150 185.166, 150 186.454 M 341.677 185.725 C 332.950 185.976, 329.961 186.384, 330.261 187.282 C 330.556 188.169, 334.857 188.500, 346.083 188.500 C 359.120 188.500, 361.500 188.268, 361.500 187 C 361.500 185.297, 359.981 185.199, 341.677 185.725 M 147.667 193.667 C 147.300 194.033, 147 194.933, 147 195.667 C 147 196.728, 150.639 197, 164.833 197 C 174.642 197, 182.936 196.731, 183.264 196.402 C 183.593 196.073, 183.620 195.173, 183.324 194.402 C 182.891 193.274, 179.416 193, 165.560 193 C 156.085 193, 148.033 193.300, 147.667 193.667 M 330.062 193.833 C 329.478 194.017, 329 194.804, 329 195.583 C 329 196.755, 332.206 197, 347.500 197 C 365.343 197, 366 196.929, 366 194.997 C 366 193.060, 365.427 193.002, 348.562 193.247 C 338.971 193.386, 330.646 193.650, 330.062 193.833 M 140.667 206.667 C 140.300 207.033, 140 216.483, 140 227.667 L 140 248 164.500 248 L 189 248 189 227 L 189 206 165.167 206 C 152.058 206, 141.033 206.300, 140.667 206.667 M 324.750 206.716 L 322 207.133 322 227.400 C 322 238.547, 322.193 247.860, 322.429 248.096 C 322.666 248.332, 324.916 248.362, 327.429 248.162 L 332 247.799 332 235.399 C 332 227.800, 332.387 223, 333 223 C 333.614 223, 334 227.855, 334 235.566 L 334 248.133 336.750 247.816 L 339.500 247.500 339.780 234.750 L 340.060 222 343.530 222 L 347 222 347 235 C 347 247.333, 347.103 248, 349 248 C 350.901 248, 351 247.333, 351 234.500 C 351 223.167, 351.241 221, 352.500 221 C 353.759 221, 354 223.167, 354 234.500 L 354 248 362.849 248 L 371.699 248 372.262 227.763 C 372.572 216.633, 372.613 207.183, 372.354 206.763 C 371.876 205.990, 329.816 205.949, 324.750 206.716 M 56.011 224.250 C 56.017 233.738, 56.301 243.188, 56.642 245.250 L 57.262 249 73.381 248.986 C 82.246 248.979, 90.430 248.723, 91.567 248.418 C 93.495 247.900, 93.605 247.296, 93.195 239.487 C 92.657 229.249, 93.338 226, 96.019 226 C 97.872 226, 98 226.702, 98 236.885 L 98 247.770 103.522 248.459 C 106.559 248.839, 110.384 248.855, 112.022 248.495 L 115 247.841 115 227.421 L 115 207 85.500 207 L 56 207 56.011 224.250 M 217 227.333 C 217 238.517, 217.185 247.854, 217.412 248.083 C 217.639 248.312, 221.689 248.354, 226.412 248.177 L 235 247.853 235 232.927 C 235 220.325, 235.234 218, 236.500 218 C 237.767 218, 238 220.333, 238 233 C 238 247.333, 238.089 248, 240 248 C 241.898 248, 242.009 247.272, 242.185 233.750 C 242.443 213.801, 242.362 214.554, 244.286 214.183 C 245.851 213.882, 246 215.343, 246 230.927 L 246 248 255.500 248 L 265 248 265 235.500 C 265 224.642, 265.213 223, 266.621 223 C 268.051 223, 268.192 224.471, 267.825 235.500 L 267.409 248 270.353 248 L 273.297 248 272.702 239.561 C 272.001 229.634, 272.700 224, 274.631 224 C 275.714 224, 276 226.510, 276 236 L 276 248 278.464 248 C 280.893 248, 280.932 247.863, 281.214 238.331 C 281.410 231.698, 281.892 228.532, 282.750 228.248 C 283.695 227.935, 284 230.296, 284 237.917 L 284 248 286.500 248 C 288.999 248, 289 247.996, 289 238.059 C 289 232.510, 289.442 227.845, 290 227.500 C 290.643 227.103, 291 230.656, 291 237.441 C 291 247.333, 291.126 248, 293 248 C 294.935 248, 295 247.333, 295 227.500 L 295 207 256 207 L 217 207 217 227.333 M 398.346 215.250 C 398.699 219.787, 398.991 229.012, 398.994 235.750 L 399 248 401.473 248 L 403.945 248 404.223 233.750 C 404.485 220.259, 404.607 219.500, 406.500 219.500 C 408.394 219.500, 408.515 220.259, 408.778 233.816 C 409.053 247.967, 409.081 248.128, 411.278 247.816 C 413.435 247.509, 413.508 247.099, 413.778 233.750 C 414.040 220.826, 414.175 220, 416.028 220 C 417.897 220, 418 220.733, 418 233.981 C 418 247.649, 418.050 247.974, 420.250 248.517 C 421.488 248.822, 429.700 248.943, 438.500 248.786 L 454.500 248.500 454.813 245.782 L 455.127 243.065 443.325 242.782 C 433.013 242.536, 431.482 242.279, 431.189 240.750 C 430.884 239.161, 431.967 239, 442.927 239 C 454.239 239, 455 238.877, 455 237.046 C 455 235.329, 454.180 235.055, 448.250 234.796 C 443.048 234.568, 441.500 234.156, 441.500 233 C 441.500 231.844, 443.048 231.432, 448.250 231.204 L 455 230.909 455 218.954 L 455 207 426.352 207 L 397.704 207 398.346 215.250 M 223 230.066 L 223 242.133 225.750 241.816 L 228.500 241.500 228.782 229.750 L 229.063 218 226.032 218 L 223 218 223 230.066 M 83 232 C 83 243.990, 83.002 244, 85.393 244 C 88.616 244, 89 242.554, 89 230.418 L 89 220 86 220 L 83 220 83 232 M 250 229.500 C 250 235.500, 250.300 237, 251.500 237 C 252.700 237, 253 235.500, 253 229.500 C 253 223.500, 252.700 222, 251.500 222 C 250.300 222, 250 223.500, 250 229.500 M 71 233.563 L 71 244.127 74.250 243.813 L 77.500 243.500 77.785 233.250 L 78.070 223 74.535 223 L 71 223 71 233.563 M 152.362 231.223 C 151.024 233.388, 154.042 234, 166.059 234 C 177.945 234, 179 233.850, 179 232.165 C 179 230.476, 177.962 230.335, 165.921 230.388 C 158.728 230.420, 152.626 230.796, 152.362 231.223 M 147 240.500 C 147 241.776, 149.611 242, 164.500 242 C 179.389 242, 182 241.776, 182 240.500 C 182 239.224, 179.389 239, 164.500 239 C 149.611 239, 147 239.224, 147 240.500 M 161.228 251.749 L 139.957 252.040 140.228 271.270 L 140.500 290.500 164.500 290.500 L 188.500 290.500 188.771 270.750 L 189.042 251 185.771 251.229 C 183.972 251.355, 172.928 251.589, 161.228 251.749 M 243.250 251.767 L 217 252.033 217.015 268.767 C 217.024 277.970, 217.412 286.102, 217.878 286.837 C 218.345 287.573, 219.800 288.023, 221.113 287.837 C 223.481 287.503, 223.502 287.391, 223.778 273.750 L 224.056 260 227.403 260 C 230.352 260, 230.824 260.372, 231.375 263.125 C 231.719 264.844, 232.093 271.031, 232.207 276.875 L 232.414 287.500 233 273.500 L 233.586 259.500 233.793 273.643 C 234.003 287.962, 234.284 289, 237.961 289 C 238.399 289, 239.084 282.475, 239.483 274.500 L 240.208 260 243.604 260 L 247 260 247 274 L 247 288 251 288 L 255 288 255 283.500 L 255 279 259.500 279 C 263.855 279, 264 279.099, 264 282.066 C 264 285.704, 265.711 289.297, 267.050 288.469 C 267.573 288.146, 268 283.859, 268 278.941 L 268 270 272.375 270 C 274.781 270, 278.156 270.281, 279.875 270.625 L 283 271.250 283 279.503 C 283 285.423, 283.402 288.089, 284.424 288.937 C 286.388 290.567, 292.801 289.239, 294.027 286.949 C 294.562 285.950, 295 277.462, 295 268.089 L 295 251.047 282.250 251.273 C 275.238 251.398, 257.688 251.620, 243.250 251.767 M 323.228 271.250 L 323.500 290.500 330.259 290.796 L 337.019 291.092 336.362 282.546 L 335.705 274 346.852 274 L 358 274 358 282.500 L 358 291 364.364 291 L 370.728 291 371.364 286.360 C 371.714 283.809, 372 275.034, 372 266.860 L 372 252 347.478 252 L 322.957 252 323.228 271.250 M 336 270.034 C 336 271.970, 336.514 272.054, 346.738 271.784 C 356.037 271.538, 357.521 271.265, 357.811 269.750 C 358.114 268.169, 357.080 268, 347.073 268 C 336.605 268, 336 268.111, 336 270.034 M 419 280 L 419 291 422.500 291 L 426 291 426 280 L 426 269 422.500 269 L 419 269 419 280 M 410.667 272.667 C 410.300 273.033, 410 277.308, 410 282.167 C 410 289.352, 410.280 291, 411.500 291 C 412.728 291, 413 289.278, 413 281.500 C 413 272.792, 412.486 270.847, 410.667 272.667 M 61.203 277.003 C 60.267 278.654, 58.712 280.259, 57.750 280.570 C 56.544 280.959, 56 282.176, 56 284.486 C 56 289.948, 56.813 291, 61.034 291 L 64.853 291 65.177 282.498 C 65.533 273.133, 64.337 271.479, 61.203 277.003 M 158.446 275.087 C 157.025 277.387, 160.055 278.061, 170.574 277.786 C 180.029 277.538, 181.521 277.268, 181.811 275.750 C 182.115 274.165, 181.059 274, 170.632 274 C 163.420 274, 158.867 274.406, 158.446 275.087 M 434.750 275.558 C 434.337 275.984, 434 279.633, 434 283.667 L 434 291 445.427 291 C 458.029 291, 457.945 291.048, 457.161 284.284 C 456.903 282.052, 456.133 280.869, 454.645 280.419 C 453.465 280.062, 451.560 278.912, 450.412 277.863 C 448.208 275.850, 436.180 274.080, 434.750 275.558 M 84 286 L 84 291 98 291 L 112 291 112 286 L 112 281 98 281 L 84 281 84 286 M 154.667 282.667 C 152.748 284.586, 155.294 285, 169 285 C 181.667 285, 184 284.767, 184 283.500 C 184 282.236, 181.741 282, 169.667 282 C 161.783 282, 155.033 282.300, 154.667 282.667 M 248.500 300 C 248.129 300.601, 241.364 301, 231.563 301 C 218.056 301, 215.024 301.267, 213.961 302.547 C 212.956 303.758, 212.506 303.819, 211.893 302.826 C 211.462 302.129, 210.747 301.920, 210.304 302.361 C 209.862 302.803, 209.500 318.540, 209.500 337.333 L 209.500 371.500 256.263 371.760 L 303.026 372.020 302.763 336.760 L 302.500 301.500 299 301.234 C 296.251 301.025, 295.860 301.188, 297.177 301.993 C 298.685 302.914, 298.865 306.150, 298.956 334.025 L 299.059 365.032 296.457 367.634 L 293.855 370.236 277.177 369.510 C 268.005 369.110, 260.163 368.581, 259.750 368.333 C 259.337 368.085, 259 364.834, 259 361.108 C 259 357.382, 258.704 354.037, 258.342 353.675 C 256.771 352.104, 255 355.545, 255 360.168 C 255 364.061, 254.487 365.604, 252.545 367.545 C 250.175 369.916, 249.615 370, 236.195 370 C 221.693 370, 216.624 369.035, 214.979 365.961 C 214.403 364.884, 214 351.802, 214 334.173 C 214 307.777, 214.188 304.142, 215.582 303.607 C 217.797 302.757, 218 302.821, 218 304.375 C 218 306.423, 222.647 307, 239.150 307 L 254.050 307 255.025 309.565 C 255.561 310.976, 256 315.288, 256 319.148 C 256 324.326, 256.328 326.054, 257.250 325.736 C 258.163 325.421, 258.405 322.839, 258.147 316.152 L 257.795 307 277.397 307 C 288.179 307, 296.986 306.663, 296.968 306.250 C 296.951 305.837, 296.257 304.600, 295.427 303.500 C 294.055 301.681, 292.541 301.471, 278.709 301.183 C 270.344 301.008, 263.072 300.446, 262.550 299.933 C 260.871 298.285, 259.234 298.932, 258.589 301.500 C 258.133 303.320, 257.292 304, 255.500 304 C 253.708 304, 252.867 303.320, 252.411 301.500 C 251.777 298.976, 249.640 298.156, 248.500 300 M 37.318 300.782 C 36.452 301.333, 36.079 310.865, 35.923 336.396 C 35.731 367.735, 35.875 371.350, 37.342 372.171 C 38.365 372.744, 39.724 372.683, 40.987 372.007 C 42.945 370.959, 43 369.982, 43 336.500 C 43 303.484, 42.921 302.028, 41.066 301.035 C 38.786 299.815, 38.834 299.818, 37.318 300.782 M 55.815 335.250 C 55.637 354.637, 55.654 371.063, 55.852 371.750 C 56.132 372.716, 63.455 373, 88.119 373 L 120.025 373 119.762 336.750 L 119.500 300.500 116.250 300.187 L 113 299.873 113 331.982 L 113 364.091 110.545 366.545 L 108.091 369 85.700 369 C 57.570 369, 59.637 370.429, 59.156 350.648 C 58.967 342.867, 59.126 330.087, 59.510 322.250 L 60.208 308 83.183 308 L 106.159 308 105.462 304.750 C 105.078 302.962, 104.566 301.163, 104.323 300.750 C 104.081 300.337, 93.140 300, 80.010 300 L 56.139 300 55.815 335.250 M 150.347 300.700 L 130.194 301.041 129.805 336.270 C 129.592 355.647, 129.596 372.063, 129.815 372.750 C 130.124 373.719, 138.072 374, 165.107 374 L 200 374 200 337.500 L 200 301 189.640 301 C 183.941 301, 177.304 300.856, 174.890 300.680 C 172.475 300.504, 161.431 300.513, 150.347 300.700 M 315.250 300.706 L 313 301.139 313 337.570 L 313 374 348 374 L 383 374 383 337.631 L 383 301.262 379.250 300.642 C 375.113 299.958, 318.841 300.014, 315.250 300.706 M 393 336.472 L 393 372.945 424.750 373.222 C 442.212 373.375, 457.028 373.353, 457.673 373.173 C 458.318 372.993, 459.032 372.318, 459.260 371.673 C 459.488 371.028, 459.466 354.637, 459.211 335.250 C 458.855 308.212, 458.459 300, 457.513 300 C 455.584 300, 455.018 308.207, 455.009 336.300 C 455 363.238, 454.490 366.831, 450.455 368.379 C 449.565 368.720, 438.834 369, 426.609 369 C 409.001 369, 403.979 368.705, 402.441 367.582 C 400.612 366.245, 400.483 364.539, 400.205 337.927 C 400.029 321.117, 400.292 309.308, 400.854 308.746 C 401.403 308.197, 412.084 307.862, 426.399 307.947 L 451 308.092 451 305.628 C 451 299.756, 452.284 300, 421.393 300 L 393 300 393 336.472 M 472.571 301.571 C 471.204 302.939, 471 307.606, 471 337.571 L 471 372 474.500 372 L 478 372 478 337.200 C 478 311.467, 477.687 302.087, 476.800 301.200 C 475.219 299.619, 474.457 299.685, 472.571 301.571 M 139.691 335.015 C 139.311 353.722, 139.436 367.015, 140.006 368.515 L 140.950 371 162.784 371 C 180.053 371, 185.024 370.704, 186.559 369.582 C 188.390 368.244, 188.517 366.527, 188.805 339.332 C 188.972 323.474, 188.839 309.038, 188.509 307.250 L 187.909 304 164.115 304 L 140.321 304 139.691 335.015 M 323.667 304.667 C 323.300 305.033, 323 319.347, 323 336.476 C 323 359.841, 323.312 368.031, 324.250 369.271 C 325.340 370.712, 328.360 370.946, 347.816 371.096 C 363.861 371.220, 370.464 370.936, 371.316 370.086 C 372.561 368.842, 373.661 310.784, 372.525 306.250 L 371.962 304 348.148 304 C 335.050 304, 324.033 304.300, 323.667 304.667 M 149.250 318.250 C 149.557 319.170, 153.322 319.500, 163.500 319.500 C 173.678 319.500, 177.443 319.170, 177.750 318.250 C 178.071 317.288, 174.789 317, 163.500 317 C 152.211 317, 148.929 317.288, 149.250 318.250 M 334 318.500 C 334 319.845, 335.830 320.019, 347.503 319.778 C 355.653 319.610, 361.006 319.104, 361.006 318.500 C 361.006 317.896, 355.653 317.390, 347.503 317.222 C 335.830 316.981, 334 317.155, 334 318.500 M 149.667 338.667 C 149.300 339.033, 149 339.933, 149 340.667 C 149 341.714, 152 342, 163 342 C 176.333 342, 177 341.905, 177 340 C 177 338.100, 176.333 338, 163.667 338 C 156.333 338, 150.033 338.300, 149.667 338.667 M 333.667 338.667 C 333.300 339.033, 333 339.933, 333 340.667 C 333 341.720, 336.250 342, 348.500 342 C 363.801 342, 367.262 341.191, 361.435 338.975 C 358.572 337.887, 334.712 337.622, 333.667 338.667 M 147.393 363.582 C 147.727 364.452, 148 365.352, 148 365.582 C 148 365.812, 155.200 366, 164 366 C 179.333 366, 180 365.917, 180 364 C 180 362.080, 179.333 362, 163.393 362 C 148.660 362, 146.855 362.179, 147.393 363.582 M 331.189 363.750 C 331.490 365.314, 333.198 365.529, 347.263 365.775 C 362.490 366.042, 363 365.985, 363 364.025 C 363 362.076, 362.401 362, 346.927 362 C 332.157 362, 330.881 362.142, 331.189 363.750" stroke="none" fill="black" fill-rule="evenodd"/>
</svg>